:FULLY-SPECIFIED
:FORCE-ALL-JOINTS-BE-3DOF
:DEGREES
243
root 2.19201 17.2158 17.6239 0.13693 11.0799 -1.96009
lfemur -28.3162 -5.46573 -18.6101
ltibia 30.4931 0 0
lfoot -9.0689 7.0762 0.198039
ltoes 0.308863 0 0
rfemur -2.12115 2.95445 25.9563
rtibia 33.7222 0 0
rfoot -13.2123 -4.48675 0.0306636
rtoes -0.591461 0 0
lowerback 5.62248 1.18236 1.01944
upperback 0.550145 1.72013 2.63321
thorax -2.59291 0.870655 2.01971
lowerneck -15.9741 -3.02143 -9.47113
upperneck 23.1962 -2.57042 3.61276
head 10.236 -1.59247 2.52267
lclavicle 3.84176e-14 -3.26006e-15 6.93705e-31
lhumerus -35.7761 10.2931 83.9009
lradius 24.9808 0 0
lwrist -12.0647 0 0
lhand -11.4968 23.0792 -0.0130763
lfingers 7.12502 0 0
lthumb 14.5418 52.5485 -0.0128046
rclavicle 3.84176e-14 -3.26006e-15 6.93705e-31
rhumerus -29.8451 -9.11742 -77.6177
rradius 39.7273 0 0
rwrist 1.55772 0 0
rhand -16.2433 12.796 -0.0129322
rfingers 7.12502 0 0
rthumb 9.96503 -16.9387 -0.0107916
244
root 2.25653 17.1932 17.805 0.226166 10.9461 -1.94297
lfemur -28.1677 -6.02988 -18.3384
ltibia 28.86 0 0
lfoot -9.78271 8.3538 0.222479
ltoes -4.36134 0 0
rfemur -1.74095 3.07025 25.8529
rtibia 33.0431 0 0
rfoot -13.5645 -4.39949 0.0221284
rtoes -1.39722 0 0
lowerback 5.53713 1.18978 0.98268
upperback 0.574613 1.72439 2.63598
thorax -2.51573 0.873062 2.04708
lowerneck -16.2731 -3.03368 -9.5567
upperneck 23.3364 -2.54335 3.65218
head 10.3434 -1.58247 2.55468
lclavicle -3.67603e-14 -2.03556e-14 -5.33558e-31
lhumerus -35.8167 9.94476 84.1841
lradius 25.0456 0 0
lwrist -12.2111 0 0
lhand -11.0835 24.2316 -0.00998649
lfingers 7.12502 0 0
lthumb 14.94 53.6715 -0.00992213
rclavicle -3.67603e-14 -2.03556e-14 -5.33558e-31
rhumerus -29.6196 -9.5406 -77.3774
rradius 39.9215 0 0
rwrist 1.56599 0 0
rhand -16.5496 12.9611 -0.0134179
rfingers 7.12502 0 0
rthumb 9.66937 -16.7859 -0.0110053
245
root 2.32205 17.1714 17.9769 0.392882 10.8274 -2.15581
lfemur -28.2523 -6.61259 -17.6867
ltibia 27.5391 0 0
lfoot -10.7862 9.14734 0.21787
ltoes -1.10073 0 0
rfemur -1.43334 3.05693 26.1
rtibia 32.2899 0 0
rfoot -13.6126 -4.41853 0.00670513
rtoes -2.80241 0 0
lowerback 5.59986 1.14893 1.23527
upperback 0.459815 1.69197 2.66318
thorax -2.65651 0.853678 1.93451
lowerneck -16.3266 -2.94147 -9.43639
upperneck 23.3935 -2.44944 3.68166
head 10.3651 -1.52511 2.55899
lclavicle 4.2689e-14 -6.2816e-15 2.28616e-30
lhumerus -35.869 10.0521 84.0494
lradius 24.6761 0 0
lwrist -12.6113 0 0
lhand -11.167 24.5783 -0.0101441
lfingers 7.12502 0 0
lthumb 14.8594 54.0229 -0.0103456
rclavicle 4.2689e-14 -6.2816e-15 2.28616e-30
rhumerus -29.7334 -9.61959 -77.3662
rradius 40.304 0 0
rwrist 1.16547 0 0
rhand -16.6017 13.2097 -0.0085778
rfingers 7.12502 0 0
rthumb 9.61914 -16.5388 -0.00618243
246
root 2.39316 17.144 18.1465 0.710442 10.7228 -2.07845
lfemur -28.5094 -7.16132 -17.4355
ltibia 26.496 0 0
lfoot -11.4734 9.38451 0.212817
ltoes 0.078566 0 0
rfemur -1.18236 2.84327 25.8804
rtibia 31.5368 0 0
rfoot -13.84 -4.27677 -0.00665504
rtoes -6.45662 0 0
lowerback 5.39903 1.13333 1.27836
upperback 0.355525 1.6669 2.53293
thorax -2.64533 0.838557 1.78048
lowerneck -16.0968 -2.86105 -9.06756
upperneck 23.3139 -2.44637 3.62527
head 10.2855 -1.49706 2.47763
lclavicle 3.83655e-14 2.14687e-14 -6.6912e-30
lhumerus -35.9223 10.228 83.705
lradius 24.2715 0 0
lwrist -13.2435 0 0
lhand -11.3862 23.8555 -0.0196713
lfingers 7.12502 0 0
lthumb 14.6481 53.3128 -0.020132
rclavicle 3.83655e-14 2.14687e-14 -6.6912e-30
rhumerus -29.9177 -9.51463 -77.5872
rradius 40.8733 0 0
rwrist 0.677262 0 0
rhand -16.7356 12.3616 -0.0183628
rfingers 7.12502 0 0
rthumb 9.48993 -17.3943 -0.0159212
247
root 2.45803 17.1206 18.33 0.738215 10.5351 -1.95493
lfemur -28.4846 -7.73442 -17.2765
ltibia 25.6915 0 0
lfoot -12.2337 9.56826 0.212176
ltoes 1.15133 0 0
rfemur -0.732065 2.956 25.543
rtibia 30.8371 0 0
rfoot -14.2137 -4.23381 -0.00787111
rtoes -9.64545 0 0
lowerback 5.17759 1.13964 1.10017
upperback 0.363142 1.65683 2.49742
thorax -2.50786 0.835501 1.85137
lowerneck -16.081 -2.88694 -9.07894
upperneck 23.3085 -2.49351 3.67795
head 10.2844 -1.51329 2.49227
lclavicle 8.48568e-15 -5.56587e-16 3.88346e-30
lhumerus -35.8146 10.9693 83.3031
lradius 23.6458 0 0
lwrist -14.306 0 0
lhand -11.7435 21.7229 -0.0428769
lfingers 7.12502 0 0
lthumb 14.3037 51.2026 -0.0429719
rclavicle 8.48568e-15 -5.56587e-16 3.88346e-30
rhumerus -29.7846 -9.66723 -77.5412
rradius 40.9891 0 0
rwrist 0.527098 0 0
rhand -17.1171 12.0074 -0.0276955
rfingers 7.12502 0 0
rthumb 9.12178 -17.7633 -0.024697
